<svg viewBox="0 0 12 12" width="60px" height="60px" xmlns="http://www.w3.org/2000/svg"><path fill-rule="evenodd" d="M 3,0 9,0 9,2 12,2 12,11 0,11 0,2 3,2z M 3,6 4,6 4,7 3,7z M 8,6 9,6 9,7 8,7z" fill="#9881F3"/><path fill-rule="evenodd" d="M 4,1 5,1 5,2 7,2 7,1 8,1 8,5 7,5 7,3 5,3 5,5 4,5z" fill="#ffffff"/><path fill-rule="evenodd" d="M 1,3 2,3 2,4 1,4z" fill="#ffffff"/><path fill-rule="evenodd" d="M 10,3 11,3 11,4 10,4z" fill="#ffffff"/><path fill-rule="evenodd" d="M 1,6 2,6 2,7 1,7z" fill="#ffffff"/><path fill-rule="evenodd" d="M 10,6 11,6 11,7 10,7z" fill="#ffffff"/><path fill-rule="evenodd" d="M 5,7 7,7 7,8 5,8z" fill="#ffffff"/><path fill-rule="evenodd" d="M 4,8 5,8 5,9 7,9 7,8 8,8 8,10 4,10z" fill="#ffffff"/><path fill-rule="evenodd" d="M 1,9 2,9 2,10 1,10z" fill="#ffffff"/><path fill-rule="evenodd" d="M 10,9 11,9 11,10 10,10z" fill="#ffffff"/></svg>